<svg id="visual" viewBox="0 0 900 600" width="900" height="600" xmlns="http://www.w3.org/2000/svg" xmlns:xlink="http://www.w3.org/1999/xlink" version="1.1"><rect x="0" y="0" width="900" height="600" fill="#fff"></rect><defs><linearGradient id="grad1_0" x1="33.3%" y1="0%" x2="100%" y2="100%"><stop offset="20%" stop-color="#01ff88" stop-opacity="1"></stop><stop offset="80%" stop-color="#01ff88" stop-opacity="1"></stop></linearGradient></defs><defs><linearGradient id="grad1_1" x1="33.3%" y1="0%" x2="100%" y2="100%"><stop offset="20%" stop-color="#01ff88" stop-opacity="1"></stop><stop offset="80%" stop-color="#6cffa0" stop-opacity="1"></stop></linearGradient></defs><defs><linearGradient id="grad1_2" x1="33.3%" y1="0%" x2="100%" y2="100%"><stop offset="20%" stop-color="#9affb8" stop-opacity="1"></stop><stop offset="80%" stop-color="#6cffa0" stop-opacity="1"></stop></linearGradient></defs><defs><linearGradient id="grad1_3" x1="33.3%" y1="0%" x2="100%" y2="100%"><stop offset="20%" stop-color="#9affb8" stop-opacity="1"></stop><stop offset="80%" stop-color="#bfffd0" stop-opacity="1"></stop></linearGradient></defs><defs><linearGradient id="grad1_4" x1="33.3%" y1="0%" x2="100%" y2="100%"><stop offset="20%" stop-color="#e0ffe7" stop-opacity="1"></stop><stop offset="80%" stop-color="#bfffd0" stop-opacity="1"></stop></linearGradient></defs><defs><linearGradient id="grad1_5" x1="33.3%" y1="0%" x2="100%" y2="100%"><stop offset="20%" stop-color="#e0ffe7" stop-opacity="1"></stop><stop offset="80%" stop-color="#ffffff" stop-opacity="1"></stop></linearGradient></defs><defs><linearGradient id="grad2_0" x1="0%" y1="0%" x2="66.7%" y2="100%"><stop offset="20%" stop-color="#01ff88" stop-opacity="1"></stop><stop offset="80%" stop-color="#01ff88" stop-opacity="1"></stop></linearGradient></defs><defs><linearGradient id="grad2_1" x1="0%" y1="0%" x2="66.7%" y2="100%"><stop offset="20%" stop-color="#6cffa0" stop-opacity="1"></stop><stop offset="80%" stop-color="#01ff88" stop-opacity="1"></stop></linearGradient></defs><defs><linearGradient id="grad2_2" x1="0%" y1="0%" x2="66.7%" y2="100%"><stop offset="20%" stop-color="#6cffa0" stop-opacity="1"></stop><stop offset="80%" stop-color="#9affb8" stop-opacity="1"></stop></linearGradient></defs><defs><linearGradient id="grad2_3" x1="0%" y1="0%" x2="66.7%" y2="100%"><stop offset="20%" stop-color="#bfffd0" stop-opacity="1"></stop><stop offset="80%" stop-color="#9affb8" stop-opacity="1"></stop></linearGradient></defs><defs><linearGradient id="grad2_4" x1="0%" y1="0%" x2="66.7%" y2="100%"><stop offset="20%" stop-color="#bfffd0" stop-opacity="1"></stop><stop offset="80%" stop-color="#e0ffe7" stop-opacity="1"></stop></linearGradient></defs><defs><linearGradient id="grad2_5" x1="0%" y1="0%" x2="66.7%" y2="100%"><stop offset="20%" stop-color="#ffffff" stop-opacity="1"></stop><stop offset="80%" stop-color="#e0ffe7" stop-opacity="1"></stop></linearGradient></defs><g transform="translate(900, 0)"><path d="M0 432.7C-80.5 424.2 -161.1 415.7 -216.3 374.7C-271.6 333.7 -301.6 260.4 -333.4 192.5C-365.3 124.6 -399 62.3 -432.7 0L0 0Z" fill="#f0fff3"></path><path d="M0 360.6C-67.1 353.5 -134.2 346.4 -180.3 312.2C-226.3 278.1 -251.3 217 -277.8 160.4C-304.4 103.9 -332.5 51.9 -360.6 0L0 0Z" fill="#d0ffdb"></path><path d="M0 288.4C-53.7 282.8 -107.4 277.1 -144.2 249.8C-181.1 222.5 -201.1 173.6 -222.3 128.3C-243.5 83.1 -266 41.5 -288.4 0L0 0Z" fill="#adffc4"></path><path d="M0 216.3C-40.3 212.1 -80.5 207.8 -108.2 187.3C-135.8 166.9 -150.8 130.2 -166.7 96.3C-182.6 62.3 -199.5 31.2 -216.3 0L0 0Z" fill="#85ffac"></path><path d="M0 144.2C-26.8 141.4 -53.7 138.6 -72.1 124.9C-90.5 111.2 -100.5 86.8 -111.1 64.2C-121.8 41.5 -133 20.8 -144.2 0L0 0Z" fill="#4cff94"></path><path d="M0 72.1C-13.4 70.7 -26.8 69.3 -36.1 62.4C-45.3 55.6 -50.3 43.4 -55.6 32.1C-60.9 20.8 -66.5 10.4 -72.1 0L0 0Z" fill="#01ff88"></path></g><g transform="translate(0, 600)"><path d="M0 -432.7C82.3 -425.2 164.5 -417.7 216.3 -374.7C268.1 -331.7 289.5 -253.4 320.4 -185C351.4 -116.6 392 -58.3 432.7 0L0 0Z" fill="#f0fff3"></path><path d="M0 -360.6C68.6 -354.3 137.1 -348 180.3 -312.2C223.4 -276.5 241.2 -211.1 267 -154.2C292.8 -97.2 326.7 -48.6 360.6 0L0 0Z" fill="#d0ffdb"></path><path d="M0 -288.4C54.8 -283.4 109.7 -278.4 144.2 -249.8C178.8 -221.2 193 -168.9 213.6 -123.3C234.3 -77.8 261.4 -38.9 288.4 0L0 0Z" fill="#adffc4"></path><path d="M0 -216.3C41.1 -212.6 82.3 -208.8 108.2 -187.3C134.1 -165.9 144.7 -126.7 160.2 -92.5C175.7 -58.3 196 -29.2 216.3 0L0 0Z" fill="#85ffac"></path><path d="M0 -144.2C27.4 -141.7 54.8 -139.2 72.1 -124.9C89.4 -110.6 96.5 -84.5 106.8 -61.7C117.1 -38.9 130.7 -19.4 144.2 0L0 0Z" fill="#4cff94"></path><path d="M0 -72.1C13.7 -70.9 27.4 -69.6 36.1 -62.4C44.7 -55.3 48.2 -42.2 53.4 -30.8C58.6 -19.4 65.3 -9.7 72.1 0L0 0Z" fill="#01ff88"></path></g></svg>