<svg id="visual" viewBox="0 0 900 600" width="900" height="600" xmlns="http://www.w3.org/2000/svg" xmlns:xlink="http://www.w3.org/1999/xlink" version="1.1"><rect x="0" y="0" width="900" height="600" fill="#fff"></rect><defs><linearGradient id="grad1_0" x1="33.3%" y1="100%" x2="100%" y2="0%"><stop offset="20%" stop-color="#01ff88" stop-opacity="1"></stop><stop offset="80%" stop-color="#01ff88" stop-opacity="1"></stop></linearGradient></defs><defs><linearGradient id="grad1_1" x1="33.3%" y1="100%" x2="100%" y2="0%"><stop offset="20%" stop-color="#01ff88" stop-opacity="1"></stop><stop offset="80%" stop-color="#ffffff" stop-opacity="1"></stop></linearGradient></defs><defs><linearGradient id="grad2_0" x1="0%" y1="100%" x2="66.7%" y2="0%"><stop offset="20%" stop-color="#01ff88" stop-opacity="1"></stop><stop offset="80%" stop-color="#01ff88" stop-opacity="1"></stop></linearGradient></defs><defs><linearGradient id="grad2_1" x1="0%" y1="100%" x2="66.7%" y2="0%"><stop offset="20%" stop-color="#ffffff" stop-opacity="1"></stop><stop offset="80%" stop-color="#01ff88" stop-opacity="1"></stop></linearGradient></defs><g transform="translate(900, 600)"><path d="M-270.4 0C-256.9 -43.3 -243.4 -86.6 -222.6 -128.5C-201.7 -170.4 -173.5 -210.8 -135.2 -234.2C-96.9 -257.6 -48.4 -264 0 -270.4L0 0Z" fill="#adffc4"></path><path d="M-135.2 0C-128.5 -21.7 -121.7 -43.3 -111.3 -64.3C-100.9 -85.2 -86.8 -105.4 -67.6 -117.1C-48.4 -128.8 -24.2 -132 0 -135.2L0 0Z" fill="#01ff88"></path></g><g transform="translate(0, 0)"><path d="M270.4 0C263.6 47.8 256.8 95.5 234.2 135.2C211.6 174.9 173.2 206.6 131.5 227.8C89.8 249 44.9 259.7 0 270.4L0 0Z" fill="#adffc4"></path><path d="M135.2 0C131.8 23.9 128.4 47.8 117.1 67.6C105.8 87.5 86.6 103.3 65.8 113.9C44.9 124.5 22.5 129.8 0 135.2L0 0Z" fill="#01ff88"></path></g></svg>