<svg id="visual" viewBox="0 0 900 600" width="900" height="600" xmlns="http://www.w3.org/2000/svg" xmlns:xlink="http://www.w3.org/1999/xlink" version="1.1"><rect x="0" y="0" width="900" height="600" fill="#fff"></rect><defs><linearGradient id="grad1_0" x1="33.3%" y1="0%" x2="100%" y2="100%"><stop offset="20%" stop-color="#01ff88" stop-opacity="1"></stop><stop offset="80%" stop-color="#01ff88" stop-opacity="1"></stop></linearGradient></defs><defs><linearGradient id="grad1_1" x1="33.3%" y1="0%" x2="100%" y2="100%"><stop offset="20%" stop-color="#01ff88" stop-opacity="1"></stop><stop offset="80%" stop-color="#6cffa0" stop-opacity="1"></stop></linearGradient></defs><defs><linearGradient id="grad1_2" x1="33.3%" y1="0%" x2="100%" y2="100%"><stop offset="20%" stop-color="#9affb8" stop-opacity="1"></stop><stop offset="80%" stop-color="#6cffa0" stop-opacity="1"></stop></linearGradient></defs><defs><linearGradient id="grad1_3" x1="33.3%" y1="0%" x2="100%" y2="100%"><stop offset="20%" stop-color="#9affb8" stop-opacity="1"></stop><stop offset="80%" stop-color="#bfffd0" stop-opacity="1"></stop></linearGradient></defs><defs><linearGradient id="grad1_4" x1="33.3%" y1="0%" x2="100%" y2="100%"><stop offset="20%" stop-color="#e0ffe7" stop-opacity="1"></stop><stop offset="80%" stop-color="#bfffd0" stop-opacity="1"></stop></linearGradient></defs><defs><linearGradient id="grad1_5" x1="33.3%" y1="0%" x2="100%" y2="100%"><stop offset="20%" stop-color="#e0ffe7" stop-opacity="1"></stop><stop offset="80%" stop-color="#ffffff" stop-opacity="1"></stop></linearGradient></defs><defs><linearGradient id="grad2_0" x1="0%" y1="0%" x2="66.7%" y2="100%"><stop offset="20%" stop-color="#01ff88" stop-opacity="1"></stop><stop offset="80%" stop-color="#01ff88" stop-opacity="1"></stop></linearGradient></defs><defs><linearGradient id="grad2_1" x1="0%" y1="0%" x2="66.7%" y2="100%"><stop offset="20%" stop-color="#6cffa0" stop-opacity="1"></stop><stop offset="80%" stop-color="#01ff88" stop-opacity="1"></stop></linearGradient></defs><defs><linearGradient id="grad2_2" x1="0%" y1="0%" x2="66.7%" y2="100%"><stop offset="20%" stop-color="#6cffa0" stop-opacity="1"></stop><stop offset="80%" stop-color="#9affb8" stop-opacity="1"></stop></linearGradient></defs><defs><linearGradient id="grad2_3" x1="0%" y1="0%" x2="66.7%" y2="100%"><stop offset="20%" stop-color="#bfffd0" stop-opacity="1"></stop><stop offset="80%" stop-color="#9affb8" stop-opacity="1"></stop></linearGradient></defs><defs><linearGradient id="grad2_4" x1="0%" y1="0%" x2="66.7%" y2="100%"><stop offset="20%" stop-color="#bfffd0" stop-opacity="1"></stop><stop offset="80%" stop-color="#e0ffe7" stop-opacity="1"></stop></linearGradient></defs><defs><linearGradient id="grad2_5" x1="0%" y1="0%" x2="66.7%" y2="100%"><stop offset="20%" stop-color="#ffffff" stop-opacity="1"></stop><stop offset="80%" stop-color="#e0ffe7" stop-opacity="1"></stop></linearGradient></defs><g transform="translate(900, 0)"><path d="M0 323C-25.4 255 -50.8 187 -94.5 163.7C-138.2 140.4 -200.1 161.8 -246 142C-291.8 122.2 -321.7 61.1 -351.5 0L0 0Z" fill="#f0fff3"></path><path d="M0 269.2C-21.2 212.5 -42.4 155.8 -78.7 136.4C-115.1 117 -166.7 134.9 -205 118.3C-243.2 101.8 -268.1 50.9 -293 0L0 0Z" fill="#d0ffdb"></path><path d="M0 215.3C-16.9 170 -33.9 124.6 -63 109.1C-92.1 93.6 -133.4 107.9 -164 94.7C-194.6 81.4 -214.5 40.7 -234.4 0L0 0Z" fill="#adffc4"></path><path d="M0 161.5C-12.7 127.5 -25.4 93.5 -47.2 81.8C-69.1 70.2 -100 80.9 -123 71C-145.9 61.1 -160.8 30.5 -175.8 0L0 0Z" fill="#85ffac"></path><path d="M0 107.7C-8.5 85 -16.9 62.3 -31.5 54.6C-46.1 46.8 -66.7 53.9 -82 47.3C-97.3 40.7 -107.2 20.4 -117.2 0L0 0Z" fill="#4cff94"></path><path d="M0 53.8C-4.2 42.5 -8.5 31.2 -15.7 27.3C-23 23.4 -33.3 27 -41 23.7C-48.6 20.4 -53.6 10.2 -58.6 0L0 0Z" fill="#01ff88"></path></g><g transform="translate(0, 600)"><path d="M0 -351.5C32.6 -281.2 65.1 -210.9 102.5 -177.5C139.9 -144.2 182.1 -147.9 215.6 -124.5C249.2 -101.1 274.1 -50.5 299 0L0 0Z" fill="#f0fff3"></path><path d="M0 -293C27.1 -234.3 54.3 -175.7 85.4 -147.9C116.6 -120.2 151.7 -123.3 179.7 -103.8C207.7 -84.2 228.4 -42.1 249.2 0L0 0Z" fill="#d0ffdb"></path><path d="M0 -234.4C21.7 -187.5 43.4 -140.6 68.3 -118.4C93.3 -96.1 121.4 -98.6 143.8 -83C166.1 -67.4 182.7 -33.7 199.3 0L0 0Z" fill="#adffc4"></path><path d="M0 -175.8C16.3 -140.6 32.6 -105.4 51.2 -88.8C69.9 -72.1 91 -74 107.8 -62.3C124.6 -50.5 137 -25.3 149.5 0L0 0Z" fill="#85ffac"></path><path d="M0 -117.2C10.9 -93.7 21.7 -70.3 34.2 -59.2C46.6 -48.1 60.7 -49.3 71.9 -41.5C83.1 -33.7 91.4 -16.8 99.7 0L0 0Z" fill="#4cff94"></path><path d="M0 -58.6C5.4 -46.9 10.9 -35.1 17.1 -29.6C23.3 -24 30.3 -24.7 35.9 -20.8C41.5 -16.8 45.7 -8.4 49.8 0L0 0Z" fill="#01ff88"></path></g></svg>