<svg width="30" height="30" viewBox="0 0 30 30" fill="none" xmlns="http://www.w3.org/2000/svg">
<path d="M20.25 8.99997C18.9726 8.99558 17.7069 9.24312 16.5252 9.72842C15.3436 10.2137 14.2693 10.9273 13.3637 11.8282C12.4581 12.7292 11.739 13.7998 11.2477 14.979C10.7563 16.1581 10.5022 17.4225 10.5001 18.6999V28.4999C10.5001 28.8977 10.6581 29.2793 10.9394 29.5606C11.2207 29.8419 11.6022 29.9999 12.0001 29.9999H15.5C15.8979 29.9999 16.2794 29.8419 16.5607 29.5606C16.842 29.2793 17 28.8977 17 28.4999V18.6999C16.9997 18.2456 17.0951 17.7963 17.2801 17.3813C17.4651 16.9664 17.7354 16.595 18.0735 16.2915C18.4116 15.988 18.8098 15.7592 19.2423 15.6199C19.6748 15.4807 20.1317 15.4341 20.5834 15.4833C21.3934 15.5853 22.1378 15.9811 22.6754 16.5955C23.213 17.2099 23.5064 18.0002 23.5 18.8166V28.4999C23.5 28.8977 23.6581 29.2793 23.9394 29.5606C24.2207 29.8419 24.6022 29.9999 25 29.9999H28.5C28.8978 29.9999 29.2794 29.8419 29.5607 29.5606C29.842 29.2793 30 28.8977 30 28.4999V18.6999C29.9978 17.4225 29.7438 16.1581 29.2524 14.979C28.761 13.7998 28.042 12.7292 27.1364 11.8282C26.2308 10.9273 25.1565 10.2137 23.9748 9.72842C22.7932 9.24312 21.5274 8.99558 20.25 8.99997Z" fill="url(#paint0_linear_9_1042)"/>
<path d="M5.99998 10.5H1.5C0.671571 10.5 0 11.1716 0 12V28.5C0 29.3284 0.671571 30 1.5 30H5.99998C6.82841 30 7.49998 29.3284 7.49998 28.5V12C7.49998 11.1716 6.82841 10.5 5.99998 10.5Z" fill="url(#paint1_linear_9_1042)"/>
<path d="M3.74999 7.49998C5.82105 7.49998 7.49998 5.82105 7.49998 3.74999C7.49998 1.67893 5.82105 0 3.74999 0C1.67893 0 0 1.67893 0 3.74999C0 5.82105 1.67893 7.49998 3.74999 7.49998Z" fill="url(#paint2_linear_9_1042)"/>
<defs>
<linearGradient id="paint0_linear_9_1042" x1="20.25" y1="8.99991" x2="20.25" y2="29.9999" gradientUnits="userSpaceOnUse">
<stop stop-color="#2F80ED"/>
<stop offset="1" stop-color="#56CCF2"/>
</linearGradient>
<linearGradient id="paint1_linear_9_1042" x1="3.74999" y1="10.5" x2="3.74999" y2="30" gradientUnits="userSpaceOnUse">
<stop stop-color="#2F80ED"/>
<stop offset="1" stop-color="#56CCF2"/>
</linearGradient>
<linearGradient id="paint2_linear_9_1042" x1="3.74999" y1="0" x2="3.74999" y2="7.49998" gradientUnits="userSpaceOnUse">
<stop stop-color="#2F80ED"/>
<stop offset="1" stop-color="#56CCF2"/>
</linearGradient>
</defs>
</svg>
