<svg id="visual" viewBox="0 0 900 600" width="900" height="600" xmlns="http://www.w3.org/2000/svg" xmlns:xlink="http://www.w3.org/1999/xlink" version="1.1"><path d="M0 7L75 8C150 9 300 11 450 13C600 15 750 17 825 18L900 19L900 0L825 0C750 0 600 0 450 0C300 0 150 0 75 0L0 0Z" fill="#01ff88"></path><path d="M0 55L75 59C150 63 300 71 450 65C600 59 750 39 825 29L900 19L900 17L825 16C750 15 600 13 450 11C300 9 150 7 75 6L0 5Z" fill="#73ffa4"></path><path d="M0 67L75 69C150 71 300 75 450 73C600 71 750 63 825 59L900 55L900 17L825 27C750 37 600 57 450 63C300 69 150 61 75 57L0 53Z" fill="#a4ffbf"></path><path d="M0 109L75 108C150 107 300 105 450 98C600 91 750 79 825 73L900 67L900 53L825 57C750 61 600 69 450 71C300 73 150 69 75 67L0 65Z" fill="#cdffd9"></path><path d="M0 235L75 220C150 205 300 175 450 194C600 213 750 281 825 315L900 349L900 65L825 71C750 77 600 89 450 96C300 103 150 105 75 106L0 107Z" fill="#f1fff4"></path><path d="M0 241L75 227C150 213 300 185 450 205C600 225 750 293 825 327L900 361L900 347L825 313C750 279 600 211 450 192C300 173 150 203 75 218L0 233Z" fill="#ffffff"></path><path d="M0 259L75 243C150 227 300 195 450 219C600 243 750 323 825 363L900 403L900 359L825 325C750 291 600 223 450 203C300 183 150 211 75 225L0 239Z" fill="#ffffff"></path><path d="M0 361L75 367C150 373 300 385 450 399C600 413 750 429 825 437L900 445L900 401L825 361C750 321 600 241 450 217C300 193 150 225 75 241L0 257Z" fill="#f1fff4"></path><path d="M0 439L75 443C150 447 300 455 450 469C600 483 750 503 825 513L900 523L900 443L825 435C750 427 600 411 450 397C300 383 150 371 75 365L0 359Z" fill="#cdffd9"></path><path d="M0 481L75 487C150 493 300 505 450 514C600 523 750 529 825 532L900 535L900 521L825 511C750 501 600 481 450 467C300 453 150 445 75 441L0 437Z" fill="#a4ffbf"></path><path d="M0 499L75 507C150 515 300 531 450 537C600 543 750 539 825 537L900 535L900 533L825 530C750 527 600 521 450 512C300 503 150 491 75 485L0 479Z" fill="#73ffa4"></path><path d="M0 601L75 601C150 601 300 601 450 601C600 601 750 601 825 601L900 601L900 533L825 535C750 537 600 541 450 535C300 529 150 513 75 505L0 497Z" fill="#01ff88"></path></svg>